<?xml version="1.0" standalone="no"?>
<!DOCTYPE svg PUBLIC "-//W3C//DTD SVG 20010904//EN"
 "http://www.w3.org/TR/2001/REC-SVG-20010904/DTD/svg10.dtd">
<svg version="1.0" xmlns="http://www.w3.org/2000/svg"
 width="1574.000000pt" height="1574.000000pt" viewBox="0 0 1574.000000 1574.000000"
 preserveAspectRatio="xMidYMid meet">
<metadata>
Created by potrace 1.11, written by Peter Selinger 2001-2013
</metadata>
<g transform="translate(0.000000,1574.000000) scale(0.100000,-0.100000)"
fill="#000000" stroke="none">
<path d="M7597 12784 c-1 -1 -67 -5 -147 -8 -178 -8 -362 -22 -520 -41 -19 -2
-60 -7 -90 -10 -30 -3 -64 -8 -75 -10 -11 -3 -42 -7 -70 -10 -49 -5 -80 -9
-140 -20 -16 -3 -43 -8 -60 -10 -37 -6 -209 -38 -260 -49 -11 -3 -53 -12 -93
-20 -252 -54 -634 -164 -817 -236 -11 -4 -65 -25 -120 -45 -313 -119 -753
-343 -966 -494 -20 -14 -47 -33 -59 -41 -13 -8 -54 -37 -91 -65 -37 -27 -80
-59 -95 -70 -15 -11 -32 -25 -38 -30 -6 -6 -36 -30 -66 -55 -86 -71 -126 -107
-244 -225 -139 -139 -232 -244 -228 -257 1 -5 -2 -8 -7 -8 -13 0 -80 -88 -165
-215 -36 -55 -70 -104 -74 -110 -30 -38 -150 -270 -207 -398 -78 -174 -166
-484 -190 -667 -4 -25 -8 -59 -11 -76 -13 -86 -15 -125 -19 -319 -4 -250 9
-395 50 -585 3 -14 8 -38 10 -55 6 -32 24 -98 56 -205 108 -356 319 -732 589
-1050 123 -145 352 -365 515 -494 33 -26 68 -54 78 -62 37 -30 263 -187 277
-192 8 -3 17 -8 20 -12 3 -3 46 -30 95 -60 50 -30 97 -60 106 -67 8 -7 23 -13
32 -13 9 0 17 -4 17 -8 0 -4 15 -15 33 -24 17 -8 109 -54 202 -100 94 -47 181
-89 195 -93 14 -4 30 -11 35 -15 11 -9 224 -97 265 -110 14 -5 57 -20 95 -35
118 -44 272 -92 565 -175 34 -10 183 -46 225 -54 231 -48 412 -81 555 -101 25
-3 56 -8 70 -10 30 -4 109 -13 165 -19 22 -3 69 -8 104 -11 234 -25 361 -30
766 -30 355 0 489 4 662 20 118 11 279 27 294 30 9 2 40 6 70 10 30 3 65 8 79
10 14 3 43 7 65 10 22 2 51 7 65 10 13 2 42 7 65 10 137 20 408 80 715 160
193 50 560 181 810 289 132 58 506 248 520 265 3 3 19 13 35 21 17 8 41 22 55
31 14 10 72 47 130 85 58 37 155 104 217 150 104 77 131 98 189 149 13 11 38
31 56 45 34 26 297 286 359 355 73 82 195 244 277 369 230 350 376 733 437
1146 20 136 27 480 12 639 -6 74 -29 229 -41 286 -5 21 -54 219 -61 245 -43
162 -162 435 -270 625 -37 65 -132 213 -159 246 -12 14 -28 37 -36 49 -20 30
-145 185 -184 229 -115 126 -282 284 -426 405 -246 205 -675 465 -1000 606
-41 18 -93 40 -115 50 -193 87 -649 241 -845 285 -8 2 -41 11 -73 19 -31 9
-61 15 -65 14 -4 0 -14 1 -22 5 -20 7 -180 43 -255 57 -33 6 -69 13 -80 15
-19 4 -164 28 -235 39 -66 11 -245 35 -307 41 -34 3 -70 7 -80 9 -10 2 -62 7
-117 11 -54 4 -110 8 -125 10 -101 12 -874 29 -884 19z m-494 -871 c-72 -93
-233 -378 -233 -412 0 -6 -4 -11 -9 -11 -5 0 -13 -15 -16 -32 -4 -18 -11 -38
-16 -43 -20 -25 -141 -374 -134 -385 3 -5 1 -10 -4 -12 -11 -4 -91 -315 -117
-458 -3 -14 -11 -65 -20 -115 -25 -149 -20 -137 -62 -131 -247 36 -460 74
-542 96 -19 5 -48 11 -65 14 -16 3 -86 22 -155 41 -153 44 -141 41 -165 49
-11 4 -51 19 -90 33 -305 109 -492 239 -544 378 -28 75 -27 125 6 193 30 64
147 187 228 239 28 18 55 36 60 41 21 17 153 90 223 122 39 19 72 38 72 42 0
4 6 5 14 2 8 -3 17 -1 21 5 3 6 15 11 25 11 10 0 20 3 22 8 4 9 54 28 258 98
315 108 825 222 1126 250 38 4 71 8 73 10 2 2 20 4 39 4 l34 0 -29 -37z m1661
22 c89 -13 115 -16 176 -26 36 -5 81 -12 100 -15 121 -19 464 -94 520 -114 14
-5 36 -12 50 -14 14 -2 70 -19 125 -36 55 -18 109 -34 120 -37 11 -2 29 -8 40
-13 11 -4 47 -18 80 -30 33 -12 69 -26 80 -31 11 -4 49 -20 85 -35 366 -149
649 -371 675 -531 7 -44 -12 -153 -27 -153 -4 0 -8 -7 -8 -15 0 -28 -132 -149
-215 -197 -91 -53 -207 -108 -227 -108 -8 0 -18 -4 -24 -9 -11 -10 -215 -80
-324 -110 -93 -25 -333 -80 -379 -86 -18 -2 -41 -7 -50 -9 -19 -6 -44 -10
-181 -31 -174 -27 -180 -27 -181 -18 0 4 -2 16 -4 25 -2 9 -6 36 -9 60 -9 65
-37 221 -43 238 -3 8 -7 22 -8 30 -1 12 -11 61 -20 105 -2 6 -19 73 -39 150
-94 357 -228 676 -382 910 -32 50 -63 96 -67 103 -9 13 31 12 137 -3z m-838
-790 c47 -20 106 -82 156 -168 24 -40 46 -74 50 -75 5 -2 6 -8 3 -13 -3 -4 3
-25 14 -46 50 -98 134 -394 157 -554 6 -43 4 -44 -111 -50 -118 -5 -764 -4
-769 2 -7 7 38 232 69 346 48 176 106 318 170 418 85 134 169 179 261 140z
m-3761 -1091 c125 -126 184 -170 440 -331 11 -7 88 -46 170 -87 173 -85 373
-166 560 -225 72 -23 144 -45 160 -51 47 -15 296 -78 332 -85 18 -3 42 -9 55
-14 13 -5 26 -9 31 -9 9 0 87 -13 110 -18 9 -2 27 -6 39 -9 20 -4 171 -31 223
-40 11 -2 43 -6 71 -10 108 -13 109 -14 110 -81 2 -62 14 -284 18 -344 10
-119 18 -200 22 -235 3 -22 7 -56 9 -75 4 -38 33 -239 40 -280 3 -14 12 -65
20 -115 42 -242 164 -698 225 -840 7 -18 20 -51 25 -65 37 -110 178 -391 247
-492 41 -61 58 -95 42 -86 -5 3 -38 9 -73 12 -36 4 -67 8 -70 10 -3 2 -28 6
-56 10 -128 16 -448 80 -532 107 -18 5 -40 12 -50 13 -10 2 -38 10 -63 17 -25
7 -52 14 -60 15 -31 6 -328 107 -400 136 -277 111 -505 224 -735 365 -11 7
-27 15 -35 19 -8 4 -17 10 -20 14 -3 3 -41 31 -85 61 -44 30 -87 59 -95 66
-306 238 -518 457 -691 714 -363 540 -454 1146 -267 1774 25 86 106 295 121
314 9 10 17 5 41 -25 17 -22 71 -80 121 -130z m7585 114 c25 -61 90 -236 95
-258 2 -8 15 -60 30 -115 14 -55 28 -113 30 -130 3 -16 7 -48 11 -70 25 -147
34 -383 19 -510 -3 -27 -7 -67 -10 -89 -7 -67 -36 -196 -62 -280 -13 -44 -26
-85 -27 -91 -10 -35 -70 -174 -110 -255 -200 -400 -545 -773 -981 -1062 -126
-84 -153 -100 -262 -161 -29 -15 -53 -33 -53 -39 0 -6 -3 -9 -6 -5 -4 3 -52
-17 -107 -44 -110 -56 -311 -146 -342 -155 -5 -1 -39 -14 -75 -29 -118 -48
-436 -150 -560 -180 -8 -2 -55 -13 -105 -25 -49 -12 -99 -23 -110 -26 -11 -2
-31 -6 -45 -9 -70 -15 -227 -43 -280 -50 -19 -3 -45 -7 -57 -9 -42 -9 -143
-17 -143 -12 0 3 25 44 56 92 120 184 259 491 339 749 20 66 41 131 46 145 12
35 78 307 85 350 3 19 7 41 10 49 2 8 7 30 10 50 3 20 7 42 10 49 6 21 50 308
59 399 2 17 6 49 9 70 3 21 8 72 12 113 3 41 7 91 9 110 2 19 7 100 10 180 4
80 8 164 9 187 1 24 5 45 8 48 3 4 37 10 74 16 102 14 149 22 264 44 13 3 42
7 64 11 22 3 43 7 47 9 3 2 19 6 35 9 170 31 452 105 664 176 583 194 1002
443 1243 738 28 34 54 62 57 62 4 0 17 -24 30 -52z m-3396 -1114 c-5 -92 -15
-234 -18 -254 -3 -14 -7 -47 -11 -75 -66 -530 -220 -956 -382 -1057 -184 -113
-384 209 -507 813 -18 89 -52 324 -61 419 -15 171 -15 169 2 172 9 2 233 3
497 3 480 0 481 0 480 -21z"/>
<path d="M4655 4997 c-38 -5 -77 -11 -85 -14 -8 -4 -24 -8 -35 -10 -39 -7
-151 -46 -190 -66 -22 -12 -43 -21 -46 -22 -4 0 -44 -24 -89 -54 -111 -72
-251 -212 -300 -299 -8 -15 -18 -29 -21 -32 -10 -9 -33 -55 -31 -62 1 -5 -2
-8 -7 -8 -5 0 -12 -7 -15 -16 -4 -10 -2 -13 7 -8 6 4 4 -2 -5 -12 -20 -23 -73
-169 -83 -229 -22 -139 -23 -301 -1 -405 21 -99 47 -183 60 -192 6 -4 8 -8 3
-8 -19 0 92 -188 158 -269 34 -42 168 -171 173 -166 3 2 12 -4 21 -15 27 -32
234 -140 272 -143 11 -1 19 -4 19 -8 0 -4 12 -9 28 -12 15 -3 59 -13 97 -21
74 -17 259 -24 336 -13 25 4 79 16 120 27 41 11 81 22 89 25 8 2 29 10 45 18
17 8 48 23 70 33 114 52 287 195 363 299 20 28 39 52 43 55 3 3 18 28 34 55
15 28 31 55 36 61 5 6 6 14 2 17 -3 4 -2 7 3 7 8 0 31 47 39 80 2 7 15 40 26
68 5 13 7 27 4 32 -3 5 -1 11 4 14 5 3 12 25 15 49 4 24 9 57 12 73 17 86 8
232 -21 369 -10 43 -11 48 -19 67 -4 9 -9 22 -10 30 -13 61 -131 273 -180 324
-6 6 -29 31 -51 55 -104 113 -228 196 -400 270 -33 14 -125 38 -125 33 0 -3
-8 0 -18 5 -41 22 -233 31 -347 18z m282 -400 c22 -9 44 -13 47 -10 3 4 6 2 6
-4 0 -6 15 -16 33 -24 38 -15 89 -49 100 -67 5 -7 12 -10 18 -7 5 4 9 2 9 -4
0 -5 21 -31 47 -58 26 -26 47 -50 47 -53 -1 -3 9 -21 21 -40 25 -40 75 -161
75 -183 0 -7 3 -17 6 -20 26 -26 20 -317 -7 -369 -6 -10 -7 -18 -3 -18 3 0 2
-6 -3 -12 -5 -7 -18 -35 -28 -63 -30 -83 -111 -189 -199 -263 -18 -14 -119
-74 -126 -74 -3 -1 -9 -2 -15 -4 -68 -25 -118 -33 -194 -30 -116 5 -202 33
-292 97 -14 10 -29 15 -33 11 -4 -4 -6 -2 -4 3 3 11 -70 85 -85 85 -4 0 -6 4
-2 9 3 5 -5 17 -17 25 -12 9 -19 16 -14 16 5 0 2 8 -6 18 -59 66 -109 232
-112 375 -3 102 23 266 46 294 5 7 7 17 3 23 -3 5 -2 10 4 10 5 0 13 10 17 23
3 12 12 29 19 37 8 8 15 21 17 29 4 17 14 30 88 106 48 49 159 124 198 132 29
7 47 12 47 13 0 1 16 4 35 7 19 2 37 6 38 8 10 9 182 -5 219 -18z"/>
<path d="M8836 5003 c-1 -2 -27 -5 -58 -8 -79 -8 -216 -40 -228 -54 -3 -3 -12
-7 -20 -9 -33 -6 -120 -49 -200 -101 -78 -51 -270 -228 -270 -250 0 -5 -6 -16
-13 -23 -16 -17 -72 -112 -68 -117 1 -2 -1 -7 -6 -10 -16 -11 -79 -173 -89
-231 -2 -8 -6 -31 -10 -50 -13 -67 -14 -86 -14 -195 0 -97 4 -170 10 -170 1 0
3 -9 4 -20 4 -31 28 -129 35 -140 3 -5 7 -19 8 -30 2 -10 9 -23 16 -27 6 -4 8
-8 4 -8 -8 0 69 -156 88 -176 5 -6 17 -22 25 -34 40 -61 208 -235 217 -226 3
3 19 -9 35 -25 17 -16 35 -29 40 -29 5 0 28 -13 51 -28 23 -16 69 -39 102 -51
33 -13 69 -27 80 -32 11 -6 30 -11 43 -12 12 0 22 -6 22 -11 0 -5 2 -7 6 -4 3
3 22 2 42 -3 161 -39 363 -29 532 27 90 30 191 80 268 133 74 50 214 180 206
192 -3 5 2 9 10 9 9 0 16 4 16 9 0 5 7 16 15 25 8 8 37 50 63 93 165 267 201
574 103 863 -39 113 -130 279 -185 336 -6 6 -32 33 -57 60 -83 90 -187 167
-289 216 -103 49 -190 82 -190 73 0 -2 -18 2 -39 10 -22 7 -68 17 -103 21 -64
7 -197 12 -202 7z m210 -403 c71 -21 160 -72 219 -124 17 -14 34 -26 38 -26 5
0 6 -4 3 -9 -4 -5 8 -21 25 -35 17 -14 27 -26 23 -26 -4 0 0 -8 8 -17 21 -24
78 -139 78 -158 0 -8 4 -15 8 -15 5 0 9 -6 9 -12 1 -17 11 -66 21 -103 10 -37
8 -196 -3 -250 -4 -22 -9 -47 -10 -55 -1 -8 -9 -31 -16 -50 -7 -19 -12 -38
-11 -42 1 -5 -2 -8 -8 -8 -5 0 -15 -18 -21 -40 -7 -22 -15 -40 -19 -40 -4 0
-12 -11 -18 -25 -10 -23 -38 -57 -87 -109 -140 -149 -372 -203 -560 -132 -30
12 -109 50 -115 56 -3 3 -25 21 -50 39 -25 19 -48 41 -53 47 -4 7 -13 19 -20
26 -47 50 -121 182 -131 234 -2 11 -9 39 -16 64 -22 81 -15 324 11 372 5 10 8
18 5 18 -3 0 2 17 11 38 8 20 20 48 26 62 6 14 10 28 9 33 -1 4 3 7 8 7 6 0
16 13 23 28 13 30 22 42 80 102 37 40 157 126 157 114 0 -3 7 0 16 7 9 7 23
14 31 15 8 1 22 6 31 10 9 4 35 9 57 11 22 3 41 6 43 8 8 8 162 -3 198 -15z"/>
<path d="M1982 4919 c-16 -6 -18 -25 -17 -180 l0 -174 298 -1 c163 0 300 -4
303 -7 3 -3 6 -364 6 -801 0 -734 1 -796 16 -797 60 -3 414 1 420 5 4 2 7 362
6 800 l0 796 20 1 c12 0 148 1 304 1 l282 1 1 26 c4 97 1 322 -3 326 -8 8
-1615 11 -1636 4z"/>
<path d="M5888 4920 l-47 -5 53 -84 c30 -46 59 -91 65 -100 34 -50 61 -92 61
-96 0 -2 18 -31 40 -64 22 -33 40 -63 40 -67 0 -4 9 -15 21 -25 11 -9 19 -19
17 -22 -3 -4 72 -126 103 -167 11 -14 24 -37 30 -52 6 -16 14 -28 18 -28 3 0
15 -17 26 -37 11 -21 22 -40 26 -43 3 -3 27 -40 54 -83 26 -43 53 -84 59 -91
6 -6 12 -18 14 -26 2 -8 7 -17 11 -20 4 -3 33 -48 66 -100 33 -52 62 -97 65
-100 3 -3 5 -173 5 -379 l0 -374 213 1 c118 0 216 3 219 6 3 3 6 171 7 374 1
332 3 370 19 395 9 14 17 29 17 32 0 4 11 21 25 39 14 18 22 36 18 39 -3 4 -2
7 4 7 8 0 66 86 156 234 7 11 15 25 20 30 35 50 105 166 99 166 -4 0 -2 4 4 8
15 10 74 99 74 111 0 6 3 11 8 11 7 0 42 56 41 67 0 3 3 9 8 12 5 3 27 35 49
71 21 36 41 67 44 70 11 11 80 120 82 131 2 6 13 23 25 37 13 13 20 28 17 33
-3 5 -1 9 4 9 12 0 55 70 48 77 -6 6 -475 5 -485 -1 -10 -7 -132 -214 -131
-222 1 -4 -2 -10 -7 -13 -21 -15 -119 -180 -115 -193 1 -5 -2 -8 -7 -8 -5 0
-32 -42 -62 -92 -29 -51 -57 -96 -63 -100 -6 -4 -8 -8 -4 -8 4 0 -9 -24 -28
-52 -19 -29 -34 -58 -34 -65 0 -7 -4 -13 -8 -13 -5 0 -15 -11 -22 -25 -13 -23
-15 -24 -31 -9 -10 9 -16 21 -13 25 3 5 1 9 -4 9 -4 0 -19 23 -31 50 -12 28
-28 50 -33 50 -6 0 -8 3 -5 6 4 4 -2 19 -12 33 -10 14 -30 49 -45 76 -15 28
-38 68 -51 90 -13 22 -27 47 -31 55 -27 54 -180 316 -188 322 -6 4 -7 8 -2 8
5 0 2 8 -7 18 -10 10 -15 21 -12 24 3 3 -4 13 -14 22 -17 16 -45 18 -228 19
-114 1 -229 0 -255 -3z"/>
<path d="M10087 4922 c-15 -3 -17 -23 -17 -181 l0 -178 318 1 318 1 0 -800 0
-800 220 -3 219 -2 0 796 c0 739 1 797 17 803 9 3 147 6 305 5 l289 -1 -1 179
0 179 -826 2 c-454 1 -833 1 -842 -1z"/>
<path d="M12468 4922 c-35 -2 -51 -8 -58 -23 -6 -11 -9 -23 -6 -28 3 -5 -1
-14 -9 -21 -8 -7 -15 -16 -15 -21 0 -5 -11 -33 -25 -63 -14 -30 -25 -57 -25
-59 0 -2 -10 -26 -22 -53 -12 -27 -23 -53 -24 -59 -1 -5 -16 -40 -33 -76 -17
-36 -31 -69 -31 -72 0 -4 -11 -30 -24 -59 -32 -69 -197 -460 -201 -473 -1 -5
-10 -28 -19 -50 -72 -165 -96 -222 -98 -235 -2 -8 -6 -17 -9 -20 -9 -7 -114
-264 -110 -269 1 -2 -1 -7 -7 -10 -5 -3 -14 -19 -19 -36 -6 -16 -40 -99 -76
-182 l-65 -153 262 0 263 0 16 43 c8 23 19 53 22 67 4 14 11 30 15 35 4 6 19
44 33 85 14 41 35 99 47 128 11 28 18 52 15 52 -3 0 2 8 10 18 14 16 45 17
408 15 215 0 395 -2 400 -2 4 -1 7 -8 7 -16 0 -8 5 -15 11 -15 5 0 8 -4 5 -9
-4 -5 3 -31 15 -58 11 -26 22 -55 24 -63 6 -22 94 -253 103 -269 7 -12 53 -14
261 -13 139 0 255 2 257 5 4 3 -137 361 -168 427 -6 14 -12 27 -13 30 -1 3 -9
22 -18 44 -9 21 -17 42 -17 47 0 5 -4 9 -8 9 -4 0 -8 8 -9 18 0 9 -26 78 -57
152 -32 74 -58 140 -60 145 -1 6 -12 32 -24 59 -12 27 -22 52 -22 56 0 4 -6
20 -14 36 -8 16 -38 88 -66 159 -29 72 -61 149 -71 172 -11 23 -19 44 -19 47
0 2 -10 26 -22 53 -11 26 -22 54 -24 61 -1 8 -9 28 -18 45 -17 36 -33 78 -35
90 0 4 -12 30 -26 57 -14 27 -25 53 -25 57 0 14 -73 184 -81 189 -9 5 -429 11
-501 6z m287 -622 c27 -69 54 -141 61 -160 7 -19 44 -116 83 -214 38 -99 68
-183 66 -187 -5 -7 -524 -9 -536 -3 -7 4 -9 -2 233 627 17 44 34 75 38 70 4
-4 29 -64 55 -133z"/>
</g>
</svg>
